<?xml version="1.0" standalone="no"?><!-- Generator: Gravit.io --><svg xmlns="http://www.w3.org/2000/svg" xmlns:xlink="http://www.w3.org/1999/xlink" style="isolation:isolate" viewBox="0 0 500 500" width="500" height="500"><defs><clipPath id="_clipPath_jwaB9dKT22jZDYmvm2zQu4Pdozw3DVKg"><rect width="500" height="500"/></clipPath></defs><g clip-path="url(#_clipPath_jwaB9dKT22jZDYmvm2zQu4Pdozw3DVKg)"><line x1="224.5" y1="94" x2="224.5" y2="462" vector-effect="non-scaling-stroke" stroke-width="10" stroke="rgb(147,153,82)" stroke-linejoin="miter" stroke-linecap="square" stroke-miterlimit="3"/><path d=" M 249.377 99.957 L 249.377 101.041 L 249.172 104.635 L 247.824 104.635 L 247.834 101.197 L 247.834 99.957 L 249.377 99.957 L 249.377 99.957 Z  M 265.656 109.586 L 265.656 109.791 L 265.656 109.791 Q 265.656 110.924 265.383 111.905 L 265.383 111.905 L 265.383 111.905 Q 265.109 112.887 264.582 113.609 L 264.582 113.609 L 264.582 113.609 Q 264.055 114.332 263.278 114.742 L 263.278 114.742 L 263.278 114.742 Q 262.502 115.152 261.496 115.152 L 261.496 115.152 L 261.496 115.152 Q 260.48 115.152 259.733 114.791 L 259.733 114.791 L 259.733 114.791 Q 258.986 114.43 258.459 113.756 L 258.459 113.756 L 258.371 114.957 L 256.711 114.957 L 256.711 99.957 L 258.518 99.957 L 258.518 105.523 L 258.518 105.523 Q 259.035 104.879 259.768 104.537 L 259.768 104.537 L 259.768 104.537 Q 260.5 104.195 261.477 104.195 L 261.477 104.195 L 261.477 104.195 Q 262.492 104.195 263.273 104.596 L 263.273 104.596 L 263.273 104.596 Q 264.055 104.996 264.582 105.709 L 264.582 105.709 L 264.582 105.709 Q 265.109 106.422 265.383 107.413 L 265.383 107.413 L 265.383 107.413 Q 265.656 108.404 265.656 109.586 L 265.656 109.586 L 265.656 109.586 Z  M 263.85 109.791 L 263.85 109.586 L 263.85 109.586 Q 263.85 108.814 263.698 108.116 L 263.698 108.116 L 263.698 108.116 Q 263.547 107.418 263.215 106.886 L 263.215 106.886 L 263.215 106.886 Q 262.883 106.354 262.346 106.041 L 262.346 106.041 L 262.346 106.041 Q 261.809 105.729 261.027 105.729 L 261.027 105.729 L 261.027 105.729 Q 260.559 105.729 260.168 105.851 L 260.168 105.851 L 260.168 105.851 Q 259.777 105.973 259.47 106.192 L 259.47 106.192 L 259.47 106.192 Q 259.162 106.412 258.923 106.71 L 258.923 106.71 L 258.923 106.71 Q 258.684 107.008 258.518 107.359 L 258.518 107.359 L 258.518 111.979 L 258.518 111.979 Q 258.693 112.33 258.933 112.628 L 258.933 112.628 L 258.933 112.628 Q 259.172 112.926 259.484 113.15 L 259.484 113.15 L 259.484 113.15 Q 259.797 113.375 260.188 113.497 L 260.188 113.497 L 260.188 113.497 Q 260.578 113.619 261.047 113.619 L 261.047 113.619 L 261.047 113.619 Q 261.789 113.619 262.321 113.312 L 262.321 113.312 L 262.321 113.312 Q 262.854 113.004 263.19 112.477 L 263.19 112.477 L 263.19 112.477 Q 263.527 111.949 263.688 111.256 L 263.688 111.256 L 263.688 111.256 Q 263.85 110.563 263.85 109.791 L 263.85 109.791 L 263.85 109.791 Z  M 268.986 105.963 L 268.986 104.391 L 274.387 104.391 L 274.387 113.395 L 277.834 113.395 L 277.834 114.957 L 268.986 114.957 L 268.986 113.395 L 272.58 113.395 L 272.58 105.963 L 268.986 105.963 L 268.986 105.963 Z  M 272.346 101.617 L 272.346 101.617 L 272.346 101.617 Q 272.346 101.168 272.614 100.86 L 272.614 100.86 L 272.614 100.86 Q 272.883 100.553 273.43 100.553 L 273.43 100.553 L 273.43 100.553 Q 273.967 100.553 274.24 100.86 L 274.24 100.86 L 274.24 100.86 Q 274.514 101.168 274.514 101.617 L 274.514 101.617 L 274.514 101.617 Q 274.514 102.057 274.24 102.35 L 274.24 102.35 L 274.24 102.35 Q 273.967 102.643 273.43 102.643 L 273.43 102.643 L 273.43 102.643 Q 272.883 102.643 272.614 102.35 L 272.614 102.35 L 272.614 102.35 Q 272.346 102.057 272.346 101.617 Z  M 280.373 109.791 L 280.373 109.586 L 280.373 109.586 Q 280.373 108.404 280.661 107.413 L 280.661 107.413 L 280.661 107.413 Q 280.949 106.422 281.496 105.709 L 281.496 105.709 L 281.496 105.709 Q 282.043 104.996 282.824 104.596 L 282.824 104.596 L 282.824 104.596 Q 283.605 104.195 284.592 104.195 L 284.592 104.195 L 284.592 104.195 Q 285.568 104.195 286.306 104.542 L 286.306 104.542 L 286.306 104.542 Q 287.043 104.889 287.561 105.543 L 287.561 105.543 L 287.648 104.391 L 289.289 104.391 L 289.289 114.732 L 289.289 114.732 Q 289.289 115.777 288.962 116.588 L 288.962 116.588 L 288.962 116.588 Q 288.635 117.398 288.044 117.965 L 288.044 117.965 L 288.044 117.965 Q 287.453 118.531 286.633 118.824 L 286.633 118.824 L 286.633 118.824 Q 285.813 119.117 284.816 119.117 L 284.816 119.117 L 284.816 119.117 Q 284.406 119.117 283.879 119.024 L 283.879 119.024 L 283.879 119.024 Q 283.352 118.932 282.81 118.722 L 282.81 118.722 L 282.81 118.722 Q 282.268 118.512 281.765 118.16 L 281.765 118.16 L 281.765 118.16 Q 281.262 117.809 280.9 117.291 L 280.9 117.291 L 281.838 116.207 L 281.838 116.207 Q 282.17 116.607 282.521 116.886 L 282.521 116.886 L 282.521 116.886 Q 282.873 117.164 283.234 117.33 L 283.234 117.33 L 283.234 117.33 Q 283.596 117.496 283.957 117.569 L 283.957 117.569 L 283.957 117.569 Q 284.318 117.643 284.68 117.643 L 284.68 117.643 L 284.68 117.643 Q 285.324 117.643 285.842 117.457 L 285.842 117.457 L 285.842 117.457 Q 286.359 117.271 286.726 116.915 L 286.726 116.915 L 286.726 116.915 Q 287.092 116.559 287.287 116.031 L 287.287 116.031 L 287.287 116.031 Q 287.482 115.504 287.482 114.82 L 287.482 114.82 L 287.482 113.912 L 287.482 113.912 Q 286.955 114.518 286.237 114.835 L 286.237 114.835 L 286.237 114.835 Q 285.52 115.152 284.572 115.152 L 284.572 115.152 L 284.572 115.152 Q 283.605 115.152 282.824 114.742 L 282.824 114.742 L 282.824 114.742 Q 282.043 114.332 281.501 113.609 L 281.501 113.609 L 281.501 113.609 Q 280.959 112.887 280.666 111.905 L 280.666 111.905 L 280.666 111.905 Q 280.373 110.924 280.373 109.791 L 280.373 109.791 L 280.373 109.791 Z  M 282.18 109.586 L 282.18 109.791 L 282.18 109.791 Q 282.18 110.563 282.341 111.256 L 282.341 111.256 L 282.341 111.256 Q 282.502 111.949 282.849 112.477 L 282.849 112.477 L 282.849 112.477 Q 283.195 113.004 283.732 113.312 L 283.732 113.312 L 283.732 113.312 Q 284.27 113.619 285.021 113.619 L 285.021 113.619 L 285.021 113.619 Q 285.49 113.619 285.866 113.507 L 285.866 113.507 L 285.866 113.507 Q 286.242 113.395 286.54 113.189 L 286.54 113.189 L 286.54 113.189 Q 286.838 112.984 287.072 112.701 L 287.072 112.701 L 287.072 112.701 Q 287.307 112.418 287.482 112.076 L 287.482 112.076 L 287.482 107.232 L 287.482 107.232 Q 287.307 106.9 287.072 106.627 L 287.072 106.627 L 287.072 106.627 Q 286.838 106.354 286.535 106.153 L 286.535 106.153 L 286.535 106.153 Q 286.232 105.953 285.861 105.841 L 285.861 105.841 L 285.861 105.841 Q 285.49 105.729 285.041 105.729 L 285.041 105.729 L 285.041 105.729 Q 284.279 105.729 283.737 106.041 L 283.737 106.041 L 283.737 106.041 Q 283.195 106.354 282.849 106.886 L 282.849 106.886 L 282.849 106.886 Q 282.502 107.418 282.341 108.116 L 282.341 108.116 L 282.341 108.116 Q 282.18 108.814 282.18 109.586 L 282.18 109.586 L 282.18 109.586 Z " fill-rule="evenodd" fill="rgb(0,0,0)"/><path d=" M 344.377 185.957 L 344.377 187.041 L 344.172 190.635 L 342.824 190.635 L 342.834 187.197 L 342.834 185.957 L 344.377 185.957 L 344.377 185.957 Z  M 358.723 198.154 L 358.723 198.154 L 358.723 198.154 Q 358.723 197.832 358.596 197.573 L 358.596 197.573 L 358.596 197.573 Q 358.469 197.314 358.166 197.1 L 358.166 197.1 L 358.166 197.1 Q 357.863 196.885 357.365 196.704 L 357.365 196.704 L 357.365 196.704 Q 356.867 196.523 356.125 196.377 L 356.125 196.377 L 356.125 196.377 Q 355.217 196.191 354.47 195.928 L 354.47 195.928 L 354.47 195.928 Q 353.723 195.664 353.19 195.298 L 353.19 195.298 L 353.19 195.298 Q 352.658 194.932 352.365 194.438 L 352.365 194.438 L 352.365 194.438 Q 352.072 193.945 352.072 193.291 L 352.072 193.291 L 352.072 193.291 Q 352.072 192.646 352.375 192.085 L 352.375 192.085 L 352.375 192.085 Q 352.678 191.523 353.225 191.104 L 353.225 191.104 L 353.225 191.104 Q 353.771 190.684 354.528 190.439 L 354.528 190.439 L 354.528 190.439 Q 355.285 190.195 356.193 190.195 L 356.193 190.195 L 356.193 190.195 Q 357.17 190.195 357.951 190.449 L 357.951 190.449 L 357.951 190.449 Q 358.732 190.703 359.279 191.152 L 359.279 191.152 L 359.279 191.152 Q 359.826 191.602 360.124 192.202 L 360.124 192.202 L 360.124 192.202 Q 360.422 192.803 360.422 193.496 L 360.422 193.496 L 358.615 193.496 L 358.615 193.496 Q 358.615 193.154 358.439 192.827 L 358.439 192.827 L 358.439 192.827 Q 358.264 192.5 357.951 192.246 L 357.951 192.246 L 357.951 192.246 Q 357.639 191.992 357.194 191.836 L 357.194 191.836 L 357.194 191.836 Q 356.75 191.68 356.193 191.68 L 356.193 191.68 L 356.193 191.68 Q 355.617 191.68 355.183 191.807 L 355.183 191.807 L 355.183 191.807 Q 354.748 191.934 354.46 192.148 L 354.46 192.148 L 354.46 192.148 Q 354.172 192.363 354.025 192.646 L 354.025 192.646 L 354.025 192.646 Q 353.879 192.93 353.879 193.232 L 353.879 193.232 L 353.879 193.232 Q 353.879 193.545 353.996 193.789 L 353.996 193.789 L 353.996 193.789 Q 354.113 194.033 354.401 194.229 L 354.401 194.229 L 354.401 194.229 Q 354.689 194.424 355.173 194.58 L 355.173 194.58 L 355.173 194.58 Q 355.656 194.736 356.398 194.883 L 356.398 194.883 L 356.398 194.883 Q 357.375 195.088 358.146 195.356 L 358.146 195.356 L 358.146 195.356 Q 358.918 195.625 359.445 196.001 L 359.445 196.001 L 359.445 196.001 Q 359.973 196.377 360.251 196.875 L 360.251 196.875 L 360.251 196.875 Q 360.529 197.373 360.529 198.027 L 360.529 198.027 L 360.529 198.027 Q 360.529 198.73 360.212 199.307 L 360.212 199.307 L 360.212 199.307 Q 359.895 199.883 359.328 200.293 L 359.328 200.293 L 359.328 200.293 Q 358.762 200.703 357.971 200.928 L 357.971 200.928 L 357.971 200.928 Q 357.18 201.152 356.242 201.152 L 356.242 201.152 L 356.242 201.152 Q 355.168 201.152 354.328 200.864 L 354.328 200.864 L 354.328 200.864 Q 353.488 200.576 352.907 200.103 L 352.907 200.103 L 352.907 200.103 Q 352.326 199.629 352.019 199.004 L 352.019 199.004 L 352.019 199.004 Q 351.711 198.379 351.711 197.705 L 351.711 197.705 L 353.518 197.705 L 353.518 197.705 Q 353.557 198.262 353.815 198.643 L 353.815 198.643 L 353.815 198.643 Q 354.074 199.023 354.46 199.258 L 354.46 199.258 L 354.46 199.258 Q 354.846 199.492 355.314 199.59 L 355.314 199.59 L 355.314 199.59 Q 355.783 199.688 356.242 199.688 L 356.242 199.688 L 356.242 199.688 Q 357.385 199.688 358.049 199.268 L 358.049 199.268 L 358.049 199.268 Q 358.713 198.848 358.723 198.154 Z  M 362.912 190.391 L 364.533 190.391 L 364.582 191.387 L 364.582 191.387 Q 364.904 190.83 365.427 190.518 L 365.427 190.518 L 365.427 190.518 Q 365.949 190.205 366.691 190.195 L 366.691 190.195 L 366.691 190.195 Q 368.146 190.195 368.635 191.328 L 368.635 191.328 L 368.635 191.328 Q 368.947 190.82 369.46 190.513 L 369.46 190.513 L 369.46 190.513 Q 369.973 190.205 370.705 190.195 L 370.705 190.195 L 370.705 190.195 Q 371.867 190.195 372.492 190.908 L 372.492 190.908 L 372.492 190.908 Q 373.117 191.621 373.117 193.066 L 373.117 193.066 L 373.117 200.957 L 371.398 200.957 L 371.398 193.047 L 371.398 193.047 Q 371.398 191.719 370.178 191.729 L 370.178 191.729 L 370.178 191.729 Q 369.855 191.729 369.621 191.816 L 369.621 191.816 L 369.621 191.816 Q 369.387 191.904 369.23 192.056 L 369.23 192.056 L 369.23 192.056 Q 369.074 192.207 368.986 192.407 L 368.986 192.407 L 368.986 192.407 Q 368.898 192.607 368.869 192.822 L 368.869 192.822 L 368.869 200.957 L 367.15 200.957 L 367.15 193.037 L 367.15 193.037 Q 367.15 192.402 366.867 192.061 L 366.867 192.061 L 366.867 192.061 Q 366.584 191.719 365.969 191.729 L 365.969 191.729 L 365.969 191.729 Q 365.402 191.729 365.09 191.953 L 365.09 191.953 L 365.09 191.953 Q 364.777 192.178 364.631 192.549 L 364.631 192.549 L 364.631 200.957 L 362.912 200.957 L 362.912 190.391 L 362.912 190.391 Z  M 384.533 200.957 L 382.648 200.957 L 382.648 200.957 Q 382.541 200.752 382.478 200.444 L 382.478 200.444 L 382.478 200.444 Q 382.414 200.137 382.385 199.805 L 382.385 199.805 L 382.385 199.805 Q 382.111 200.078 381.774 200.322 L 381.774 200.322 L 381.774 200.322 Q 381.438 200.566 381.032 200.752 L 381.032 200.752 L 381.032 200.752 Q 380.627 200.938 380.168 201.045 L 380.168 201.045 L 380.168 201.045 Q 379.709 201.152 379.191 201.152 L 379.191 201.152 L 379.191 201.152 Q 378.352 201.152 377.673 200.908 L 377.673 200.908 L 377.673 200.908 Q 376.994 200.664 376.521 200.249 L 376.521 200.249 L 376.521 200.249 Q 376.047 199.834 375.788 199.263 L 375.788 199.263 L 375.788 199.263 Q 375.529 198.691 375.529 198.027 L 375.529 198.027 L 375.529 198.027 Q 375.529 197.158 375.876 196.504 L 375.876 196.504 L 375.876 196.504 Q 376.223 195.85 376.857 195.415 L 376.857 195.415 L 376.857 195.415 Q 377.492 194.98 378.386 194.766 L 378.386 194.766 L 378.386 194.766 Q 379.279 194.551 380.383 194.551 L 380.383 194.551 L 382.355 194.551 L 382.355 193.721 L 382.355 193.721 Q 382.355 193.242 382.18 192.861 L 382.18 192.861 L 382.18 192.861 Q 382.004 192.48 381.682 192.212 L 381.682 192.212 L 381.682 192.212 Q 381.359 191.943 380.896 191.797 L 380.896 191.797 L 380.896 191.797 Q 380.432 191.65 379.855 191.65 L 379.855 191.65 L 379.855 191.65 Q 379.318 191.65 378.894 191.787 L 378.894 191.787 L 378.894 191.787 Q 378.469 191.924 378.176 192.148 L 378.176 192.148 L 378.176 192.148 Q 377.883 192.373 377.722 192.681 L 377.722 192.681 L 377.722 192.681 Q 377.561 192.988 377.561 193.32 L 377.561 193.32 L 375.744 193.32 L 375.744 193.32 Q 375.754 192.744 376.042 192.188 L 376.042 192.188 L 376.042 192.188 Q 376.33 191.631 376.872 191.187 L 376.872 191.187 L 376.872 191.187 Q 377.414 190.742 378.19 190.469 L 378.19 190.469 L 378.19 190.469 Q 378.967 190.195 379.953 190.195 L 379.953 190.195 L 379.953 190.195 Q 380.852 190.195 381.623 190.415 L 381.623 190.415 L 381.623 190.415 Q 382.395 190.635 382.956 191.079 L 382.956 191.079 L 382.956 191.079 Q 383.518 191.523 383.84 192.188 L 383.84 192.188 L 383.84 192.188 Q 384.162 192.852 384.162 193.74 L 384.162 193.74 L 384.162 198.652 L 384.162 198.652 Q 384.162 199.18 384.26 199.771 L 384.26 199.771 L 384.26 199.771 Q 384.357 200.361 384.533 200.801 L 384.533 200.801 L 384.533 200.957 L 384.533 200.957 Z  M 379.455 199.58 L 379.455 199.58 L 379.455 199.58 Q 379.982 199.58 380.441 199.443 L 380.441 199.443 L 380.441 199.443 Q 380.9 199.307 381.276 199.082 L 381.276 199.082 L 381.276 199.082 Q 381.652 198.857 381.926 198.569 L 381.926 198.569 L 381.926 198.569 Q 382.199 198.281 382.355 197.969 L 382.355 197.969 L 382.355 195.83 L 380.676 195.83 L 380.676 195.83 Q 379.094 195.83 378.215 196.299 L 378.215 196.299 L 378.215 196.299 Q 377.336 196.768 377.336 197.773 L 377.336 197.773 L 377.336 197.773 Q 377.336 198.164 377.468 198.496 L 377.468 198.496 L 377.468 198.496 Q 377.6 198.828 377.863 199.067 L 377.863 199.067 L 377.863 199.067 Q 378.127 199.307 378.527 199.443 L 378.527 199.443 L 378.527 199.443 Q 378.928 199.58 379.455 199.58 Z  M 387.99 187.529 L 387.99 185.957 L 393.391 185.957 L 393.391 199.395 L 396.838 199.395 L 396.838 200.957 L 387.99 200.957 L 387.99 199.395 L 391.584 199.395 L 391.584 187.529 L 387.99 187.529 L 387.99 187.529 Z  M 399.992 187.529 L 399.992 185.957 L 405.393 185.957 L 405.393 199.395 L 408.84 199.395 L 408.84 200.957 L 399.992 200.957 L 399.992 199.395 L 403.586 199.395 L 403.586 187.529 L 399.992 187.529 L 399.992 187.529 Z  M 420.48 200.957 L 420.48 202.432 L 411.525 202.432 L 411.525 200.957 L 420.48 200.957 L 420.48 200.957 Z  M 429.572 186.738 L 429.572 200.957 L 427.766 200.957 L 427.766 189.043 L 424.045 190.459 L 424.045 188.809 L 429.426 186.738 L 429.572 186.738 L 429.572 186.738 Z " fill-rule="evenodd" fill="rgb(0,0,0)"/><path d=" M 344.377 334.957 L 344.377 336.041 L 344.172 339.635 L 342.824 339.635 L 342.834 336.197 L 342.834 334.957 L 344.377 334.957 L 344.377 334.957 Z  M 358.723 347.154 L 358.723 347.154 L 358.723 347.154 Q 358.723 346.832 358.596 346.573 L 358.596 346.573 L 358.596 346.573 Q 358.469 346.314 358.166 346.1 L 358.166 346.1 L 358.166 346.1 Q 357.863 345.885 357.365 345.704 L 357.365 345.704 L 357.365 345.704 Q 356.867 345.523 356.125 345.377 L 356.125 345.377 L 356.125 345.377 Q 355.217 345.191 354.47 344.928 L 354.47 344.928 L 354.47 344.928 Q 353.723 344.664 353.19 344.298 L 353.19 344.298 L 353.19 344.298 Q 352.658 343.932 352.365 343.438 L 352.365 343.438 L 352.365 343.438 Q 352.072 342.945 352.072 342.291 L 352.072 342.291 L 352.072 342.291 Q 352.072 341.646 352.375 341.085 L 352.375 341.085 L 352.375 341.085 Q 352.678 340.523 353.225 340.104 L 353.225 340.104 L 353.225 340.104 Q 353.771 339.684 354.528 339.439 L 354.528 339.439 L 354.528 339.439 Q 355.285 339.195 356.193 339.195 L 356.193 339.195 L 356.193 339.195 Q 357.17 339.195 357.951 339.449 L 357.951 339.449 L 357.951 339.449 Q 358.732 339.703 359.279 340.152 L 359.279 340.152 L 359.279 340.152 Q 359.826 340.602 360.124 341.202 L 360.124 341.202 L 360.124 341.202 Q 360.422 341.803 360.422 342.496 L 360.422 342.496 L 358.615 342.496 L 358.615 342.496 Q 358.615 342.154 358.439 341.827 L 358.439 341.827 L 358.439 341.827 Q 358.264 341.5 357.951 341.246 L 357.951 341.246 L 357.951 341.246 Q 357.639 340.992 357.194 340.836 L 357.194 340.836 L 357.194 340.836 Q 356.75 340.68 356.193 340.68 L 356.193 340.68 L 356.193 340.68 Q 355.617 340.68 355.183 340.807 L 355.183 340.807 L 355.183 340.807 Q 354.748 340.934 354.46 341.148 L 354.46 341.148 L 354.46 341.148 Q 354.172 341.363 354.025 341.646 L 354.025 341.646 L 354.025 341.646 Q 353.879 341.93 353.879 342.232 L 353.879 342.232 L 353.879 342.232 Q 353.879 342.545 353.996 342.789 L 353.996 342.789 L 353.996 342.789 Q 354.113 343.033 354.401 343.229 L 354.401 343.229 L 354.401 343.229 Q 354.689 343.424 355.173 343.58 L 355.173 343.58 L 355.173 343.58 Q 355.656 343.736 356.398 343.883 L 356.398 343.883 L 356.398 343.883 Q 357.375 344.088 358.146 344.356 L 358.146 344.356 L 358.146 344.356 Q 358.918 344.625 359.445 345.001 L 359.445 345.001 L 359.445 345.001 Q 359.973 345.377 360.251 345.875 L 360.251 345.875 L 360.251 345.875 Q 360.529 346.373 360.529 347.027 L 360.529 347.027 L 360.529 347.027 Q 360.529 347.73 360.212 348.307 L 360.212 348.307 L 360.212 348.307 Q 359.895 348.883 359.328 349.293 L 359.328 349.293 L 359.328 349.293 Q 358.762 349.703 357.971 349.928 L 357.971 349.928 L 357.971 349.928 Q 357.18 350.152 356.242 350.152 L 356.242 350.152 L 356.242 350.152 Q 355.168 350.152 354.328 349.864 L 354.328 349.864 L 354.328 349.864 Q 353.488 349.576 352.907 349.103 L 352.907 349.103 L 352.907 349.103 Q 352.326 348.629 352.019 348.004 L 352.019 348.004 L 352.019 348.004 Q 351.711 347.379 351.711 346.705 L 351.711 346.705 L 353.518 346.705 L 353.518 346.705 Q 353.557 347.262 353.815 347.643 L 353.815 347.643 L 353.815 347.643 Q 354.074 348.023 354.46 348.258 L 354.46 348.258 L 354.46 348.258 Q 354.846 348.492 355.314 348.59 L 355.314 348.59 L 355.314 348.59 Q 355.783 348.688 356.242 348.688 L 356.242 348.688 L 356.242 348.688 Q 357.385 348.688 358.049 348.268 L 358.049 348.268 L 358.049 348.268 Q 358.713 347.848 358.723 347.154 Z  M 362.912 339.391 L 364.533 339.391 L 364.582 340.387 L 364.582 340.387 Q 364.904 339.83 365.427 339.518 L 365.427 339.518 L 365.427 339.518 Q 365.949 339.205 366.691 339.195 L 366.691 339.195 L 366.691 339.195 Q 368.146 339.195 368.635 340.328 L 368.635 340.328 L 368.635 340.328 Q 368.947 339.82 369.46 339.513 L 369.46 339.513 L 369.46 339.513 Q 369.973 339.205 370.705 339.195 L 370.705 339.195 L 370.705 339.195 Q 371.867 339.195 372.492 339.908 L 372.492 339.908 L 372.492 339.908 Q 373.117 340.621 373.117 342.066 L 373.117 342.066 L 373.117 349.957 L 371.398 349.957 L 371.398 342.047 L 371.398 342.047 Q 371.398 340.719 370.178 340.729 L 370.178 340.729 L 370.178 340.729 Q 369.855 340.729 369.621 340.816 L 369.621 340.816 L 369.621 340.816 Q 369.387 340.904 369.23 341.056 L 369.23 341.056 L 369.23 341.056 Q 369.074 341.207 368.986 341.407 L 368.986 341.407 L 368.986 341.407 Q 368.898 341.607 368.869 341.822 L 368.869 341.822 L 368.869 349.957 L 367.15 349.957 L 367.15 342.037 L 367.15 342.037 Q 367.15 341.402 366.867 341.061 L 366.867 341.061 L 366.867 341.061 Q 366.584 340.719 365.969 340.729 L 365.969 340.729 L 365.969 340.729 Q 365.402 340.729 365.09 340.953 L 365.09 340.953 L 365.09 340.953 Q 364.777 341.178 364.631 341.549 L 364.631 341.549 L 364.631 349.957 L 362.912 349.957 L 362.912 339.391 L 362.912 339.391 Z  M 384.533 349.957 L 382.648 349.957 L 382.648 349.957 Q 382.541 349.752 382.478 349.444 L 382.478 349.444 L 382.478 349.444 Q 382.414 349.137 382.385 348.805 L 382.385 348.805 L 382.385 348.805 Q 382.111 349.078 381.774 349.322 L 381.774 349.322 L 381.774 349.322 Q 381.438 349.566 381.032 349.752 L 381.032 349.752 L 381.032 349.752 Q 380.627 349.938 380.168 350.045 L 380.168 350.045 L 380.168 350.045 Q 379.709 350.152 379.191 350.152 L 379.191 350.152 L 379.191 350.152 Q 378.352 350.152 377.673 349.908 L 377.673 349.908 L 377.673 349.908 Q 376.994 349.664 376.521 349.249 L 376.521 349.249 L 376.521 349.249 Q 376.047 348.834 375.788 348.263 L 375.788 348.263 L 375.788 348.263 Q 375.529 347.691 375.529 347.027 L 375.529 347.027 L 375.529 347.027 Q 375.529 346.158 375.876 345.504 L 375.876 345.504 L 375.876 345.504 Q 376.223 344.85 376.857 344.415 L 376.857 344.415 L 376.857 344.415 Q 377.492 343.98 378.386 343.766 L 378.386 343.766 L 378.386 343.766 Q 379.279 343.551 380.383 343.551 L 380.383 343.551 L 382.355 343.551 L 382.355 342.721 L 382.355 342.721 Q 382.355 342.242 382.18 341.861 L 382.18 341.861 L 382.18 341.861 Q 382.004 341.48 381.682 341.212 L 381.682 341.212 L 381.682 341.212 Q 381.359 340.943 380.896 340.797 L 380.896 340.797 L 380.896 340.797 Q 380.432 340.65 379.855 340.65 L 379.855 340.65 L 379.855 340.65 Q 379.318 340.65 378.894 340.787 L 378.894 340.787 L 378.894 340.787 Q 378.469 340.924 378.176 341.148 L 378.176 341.148 L 378.176 341.148 Q 377.883 341.373 377.722 341.681 L 377.722 341.681 L 377.722 341.681 Q 377.561 341.988 377.561 342.32 L 377.561 342.32 L 375.744 342.32 L 375.744 342.32 Q 375.754 341.744 376.042 341.188 L 376.042 341.188 L 376.042 341.188 Q 376.33 340.631 376.872 340.187 L 376.872 340.187 L 376.872 340.187 Q 377.414 339.742 378.19 339.469 L 378.19 339.469 L 378.19 339.469 Q 378.967 339.195 379.953 339.195 L 379.953 339.195 L 379.953 339.195 Q 380.852 339.195 381.623 339.415 L 381.623 339.415 L 381.623 339.415 Q 382.395 339.635 382.956 340.079 L 382.956 340.079 L 382.956 340.079 Q 383.518 340.523 383.84 341.188 L 383.84 341.188 L 383.84 341.188 Q 384.162 341.852 384.162 342.74 L 384.162 342.74 L 384.162 347.652 L 384.162 347.652 Q 384.162 348.18 384.26 348.771 L 384.26 348.771 L 384.26 348.771 Q 384.357 349.361 384.533 349.801 L 384.533 349.801 L 384.533 349.957 L 384.533 349.957 Z  M 379.455 348.58 L 379.455 348.58 L 379.455 348.58 Q 379.982 348.58 380.441 348.443 L 380.441 348.443 L 380.441 348.443 Q 380.9 348.307 381.276 348.082 L 381.276 348.082 L 381.276 348.082 Q 381.652 347.857 381.926 347.569 L 381.926 347.569 L 381.926 347.569 Q 382.199 347.281 382.355 346.969 L 382.355 346.969 L 382.355 344.83 L 380.676 344.83 L 380.676 344.83 Q 379.094 344.83 378.215 345.299 L 378.215 345.299 L 378.215 345.299 Q 377.336 345.768 377.336 346.773 L 377.336 346.773 L 377.336 346.773 Q 377.336 347.164 377.468 347.496 L 377.468 347.496 L 377.468 347.496 Q 377.6 347.828 377.863 348.067 L 377.863 348.067 L 377.863 348.067 Q 378.127 348.307 378.527 348.443 L 378.527 348.443 L 378.527 348.443 Q 378.928 348.58 379.455 348.58 Z  M 387.99 336.529 L 387.99 334.957 L 393.391 334.957 L 393.391 348.395 L 396.838 348.395 L 396.838 349.957 L 387.99 349.957 L 387.99 348.395 L 391.584 348.395 L 391.584 336.529 L 387.99 336.529 L 387.99 336.529 Z  M 399.992 336.529 L 399.992 334.957 L 405.393 334.957 L 405.393 348.395 L 408.84 348.395 L 408.84 349.957 L 399.992 349.957 L 399.992 348.395 L 403.586 348.395 L 403.586 336.529 L 399.992 336.529 L 399.992 336.529 Z  M 420.48 349.957 L 420.48 351.432 L 411.525 351.432 L 411.525 349.957 L 420.48 349.957 L 420.48 349.957 Z  M 432.434 348.482 L 432.434 349.957 L 423.117 349.957 L 423.117 348.658 L 427.775 343.482 L 427.775 343.482 Q 428.4 342.789 428.82 342.252 L 428.82 342.252 L 428.82 342.252 Q 429.24 341.715 429.494 341.261 L 429.494 341.261 L 429.494 341.261 Q 429.748 340.807 429.855 340.401 L 429.855 340.401 L 429.855 340.401 Q 429.963 339.996 429.963 339.566 L 429.963 339.566 L 429.963 339.566 Q 429.963 339.039 429.792 338.575 L 429.792 338.575 L 429.792 338.575 Q 429.621 338.111 429.294 337.77 L 429.294 337.77 L 429.294 337.77 Q 428.967 337.428 428.503 337.228 L 428.503 337.228 L 428.503 337.228 Q 428.039 337.027 427.453 337.027 L 427.453 337.027 L 427.453 337.027 Q 426.74 337.027 426.218 337.232 L 426.218 337.232 L 426.218 337.232 Q 425.695 337.438 425.349 337.813 L 425.349 337.813 L 425.349 337.813 Q 425.002 338.189 424.831 338.727 L 424.831 338.727 L 424.831 338.727 Q 424.66 339.264 424.66 339.928 L 424.66 339.928 L 422.844 339.928 L 422.844 339.928 Q 422.844 339.029 423.156 338.233 L 423.156 338.233 L 423.156 338.233 Q 423.469 337.438 424.06 336.842 L 424.06 336.842 L 424.06 336.842 Q 424.65 336.246 425.505 335.895 L 425.505 335.895 L 425.505 335.895 Q 426.359 335.543 427.453 335.543 L 427.453 335.543 L 427.453 335.543 Q 428.459 335.543 429.265 335.841 L 429.265 335.841 L 429.265 335.841 Q 430.07 336.139 430.627 336.666 L 430.627 336.666 L 430.627 336.666 Q 431.184 337.193 431.481 337.916 L 431.481 337.916 L 431.481 337.916 Q 431.779 338.639 431.779 339.488 L 431.779 339.488 L 431.779 339.488 Q 431.779 340.123 431.564 340.743 L 431.564 340.743 L 431.564 340.743 Q 431.35 341.363 430.983 341.969 L 430.983 341.969 L 430.983 341.969 Q 430.617 342.574 430.134 343.165 L 430.134 343.165 L 430.134 343.165 Q 429.65 343.756 429.113 344.342 L 429.113 344.342 L 425.295 348.482 L 432.434 348.482 L 432.434 348.482 Z " fill-rule="evenodd" fill="rgb(0,0,0)"/><g><line x1="322" y1="183.471" x2="322" y2="289.471" vector-effect="non-scaling-stroke" stroke-width="5" stroke="rgb(166,125,202)" stroke-linejoin="miter" stroke-linecap="square" stroke-miterlimit="3"/><line x1="322" y1="333.283" x2="322" y2="439.283" vector-effect="non-scaling-stroke" stroke-width="5" stroke="rgb(255,134,134)" stroke-linejoin="miter" stroke-linecap="square" stroke-miterlimit="3"/></g><line x1="127" y1="-32" x2="127" y2="521" vector-effect="non-scaling-stroke" stroke-width="15" stroke="rgb(104,104,104)" stroke-linejoin="miter" stroke-linecap="square" stroke-miterlimit="3"/><path d=" M 162.377 14.957 L 162.377 16.041 L 162.172 19.635 L 160.824 19.635 L 160.834 16.197 L 160.834 14.957 L 162.377 14.957 L 162.377 14.957 Z  M 176.723 27.154 L 176.723 27.154 L 176.723 27.154 Q 176.723 26.832 176.596 26.573 L 176.596 26.573 L 176.596 26.573 Q 176.469 26.314 176.166 26.1 L 176.166 26.1 L 176.166 26.1 Q 175.863 25.885 175.365 25.704 L 175.365 25.704 L 175.365 25.704 Q 174.867 25.523 174.125 25.377 L 174.125 25.377 L 174.125 25.377 Q 173.217 25.191 172.47 24.928 L 172.47 24.928 L 172.47 24.928 Q 171.723 24.664 171.19 24.298 L 171.19 24.298 L 171.19 24.298 Q 170.658 23.932 170.365 23.438 L 170.365 23.438 L 170.365 23.438 Q 170.072 22.945 170.072 22.291 L 170.072 22.291 L 170.072 22.291 Q 170.072 21.646 170.375 21.085 L 170.375 21.085 L 170.375 21.085 Q 170.678 20.523 171.225 20.104 L 171.225 20.104 L 171.225 20.104 Q 171.771 19.684 172.528 19.439 L 172.528 19.439 L 172.528 19.439 Q 173.285 19.195 174.193 19.195 L 174.193 19.195 L 174.193 19.195 Q 175.17 19.195 175.951 19.449 L 175.951 19.449 L 175.951 19.449 Q 176.732 19.703 177.279 20.152 L 177.279 20.152 L 177.279 20.152 Q 177.826 20.602 178.124 21.202 L 178.124 21.202 L 178.124 21.202 Q 178.422 21.803 178.422 22.496 L 178.422 22.496 L 176.615 22.496 L 176.615 22.496 Q 176.615 22.154 176.439 21.827 L 176.439 21.827 L 176.439 21.827 Q 176.264 21.5 175.951 21.246 L 175.951 21.246 L 175.951 21.246 Q 175.639 20.992 175.194 20.836 L 175.194 20.836 L 175.194 20.836 Q 174.75 20.68 174.193 20.68 L 174.193 20.68 L 174.193 20.68 Q 173.617 20.68 173.183 20.807 L 173.183 20.807 L 173.183 20.807 Q 172.748 20.934 172.46 21.148 L 172.46 21.148 L 172.46 21.148 Q 172.172 21.363 172.025 21.646 L 172.025 21.646 L 172.025 21.646 Q 171.879 21.93 171.879 22.232 L 171.879 22.232 L 171.879 22.232 Q 171.879 22.545 171.996 22.789 L 171.996 22.789 L 171.996 22.789 Q 172.113 23.033 172.401 23.229 L 172.401 23.229 L 172.401 23.229 Q 172.689 23.424 173.173 23.58 L 173.173 23.58 L 173.173 23.58 Q 173.656 23.736 174.398 23.883 L 174.398 23.883 L 174.398 23.883 Q 175.375 24.088 176.146 24.356 L 176.146 24.356 L 176.146 24.356 Q 176.918 24.625 177.445 25.001 L 177.445 25.001 L 177.445 25.001 Q 177.973 25.377 178.251 25.875 L 178.251 25.875 L 178.251 25.875 Q 178.529 26.373 178.529 27.027 L 178.529 27.027 L 178.529 27.027 Q 178.529 27.73 178.212 28.307 L 178.212 28.307 L 178.212 28.307 Q 177.895 28.883 177.328 29.293 L 177.328 29.293 L 177.328 29.293 Q 176.762 29.703 175.971 29.928 L 175.971 29.928 L 175.971 29.928 Q 175.18 30.152 174.242 30.152 L 174.242 30.152 L 174.242 30.152 Q 173.168 30.152 172.328 29.864 L 172.328 29.864 L 172.328 29.864 Q 171.488 29.576 170.907 29.103 L 170.907 29.103 L 170.907 29.103 Q 170.326 28.629 170.019 28.004 L 170.019 28.004 L 170.019 28.004 Q 169.711 27.379 169.711 26.705 L 169.711 26.705 L 171.518 26.705 L 171.518 26.705 Q 171.557 27.262 171.815 27.643 L 171.815 27.643 L 171.815 27.643 Q 172.074 28.023 172.46 28.258 L 172.46 28.258 L 172.46 28.258 Q 172.846 28.492 173.314 28.59 L 173.314 28.59 L 173.314 28.59 Q 173.783 28.688 174.242 28.688 L 174.242 28.688 L 174.242 28.688 Q 175.385 28.688 176.049 28.268 L 176.049 28.268 L 176.049 28.268 Q 176.713 27.848 176.723 27.154 Z  M 184.164 16.832 L 185.98 16.832 L 185.98 19.391 L 190.004 19.391 L 190.004 20.787 L 185.98 20.787 L 185.98 26.529 L 185.98 26.529 Q 185.98 27.145 186.137 27.545 L 186.137 27.545 L 186.137 27.545 Q 186.293 27.945 186.566 28.185 L 186.566 28.185 L 186.566 28.185 Q 186.84 28.424 187.196 28.521 L 187.196 28.521 L 187.196 28.521 Q 187.553 28.619 187.953 28.619 L 187.953 28.619 L 187.953 28.619 Q 188.246 28.619 188.559 28.585 L 188.559 28.585 L 188.559 28.585 Q 188.871 28.551 189.169 28.502 L 189.169 28.502 L 189.169 28.502 Q 189.467 28.453 189.726 28.399 L 189.726 28.399 L 189.726 28.399 Q 189.984 28.346 190.15 28.307 L 190.15 28.307 L 190.404 29.586 L 190.404 29.586 Q 190.18 29.723 189.857 29.825 L 189.857 29.825 L 189.857 29.825 Q 189.535 29.928 189.154 30.001 L 189.154 30.001 L 189.154 30.001 Q 188.773 30.074 188.349 30.113 L 188.349 30.113 L 188.349 30.113 Q 187.924 30.152 187.504 30.152 L 187.504 30.152 L 187.504 30.152 Q 186.801 30.152 186.19 29.952 L 186.19 29.952 L 186.19 29.952 Q 185.58 29.752 185.131 29.317 L 185.131 29.317 L 185.131 29.317 Q 184.682 28.883 184.423 28.194 L 184.423 28.194 L 184.423 28.194 Q 184.164 27.506 184.164 26.529 L 184.164 26.529 L 184.164 20.787 L 181.391 20.787 L 181.391 19.391 L 184.164 19.391 L 184.164 16.832 L 184.164 16.832 Z  M 202.533 29.957 L 200.648 29.957 L 200.648 29.957 Q 200.541 29.752 200.478 29.444 L 200.478 29.444 L 200.478 29.444 Q 200.414 29.137 200.385 28.805 L 200.385 28.805 L 200.385 28.805 Q 200.111 29.078 199.774 29.322 L 199.774 29.322 L 199.774 29.322 Q 199.438 29.566 199.032 29.752 L 199.032 29.752 L 199.032 29.752 Q 198.627 29.938 198.168 30.045 L 198.168 30.045 L 198.168 30.045 Q 197.709 30.152 197.191 30.152 L 197.191 30.152 L 197.191 30.152 Q 196.352 30.152 195.673 29.908 L 195.673 29.908 L 195.673 29.908 Q 194.994 29.664 194.521 29.249 L 194.521 29.249 L 194.521 29.249 Q 194.047 28.834 193.788 28.263 L 193.788 28.263 L 193.788 28.263 Q 193.529 27.691 193.529 27.027 L 193.529 27.027 L 193.529 27.027 Q 193.529 26.158 193.876 25.504 L 193.876 25.504 L 193.876 25.504 Q 194.223 24.85 194.857 24.415 L 194.857 24.415 L 194.857 24.415 Q 195.492 23.98 196.386 23.766 L 196.386 23.766 L 196.386 23.766 Q 197.279 23.551 198.383 23.551 L 198.383 23.551 L 200.355 23.551 L 200.355 22.721 L 200.355 22.721 Q 200.355 22.242 200.18 21.861 L 200.18 21.861 L 200.18 21.861 Q 200.004 21.48 199.682 21.212 L 199.682 21.212 L 199.682 21.212 Q 199.359 20.943 198.896 20.797 L 198.896 20.797 L 198.896 20.797 Q 198.432 20.65 197.855 20.65 L 197.855 20.65 L 197.855 20.65 Q 197.318 20.65 196.894 20.787 L 196.894 20.787 L 196.894 20.787 Q 196.469 20.924 196.176 21.148 L 196.176 21.148 L 196.176 21.148 Q 195.883 21.373 195.722 21.681 L 195.722 21.681 L 195.722 21.681 Q 195.561 21.988 195.561 22.32 L 195.561 22.32 L 193.744 22.32 L 193.744 22.32 Q 193.754 21.744 194.042 21.188 L 194.042 21.188 L 194.042 21.188 Q 194.33 20.631 194.872 20.187 L 194.872 20.187 L 194.872 20.187 Q 195.414 19.742 196.19 19.469 L 196.19 19.469 L 196.19 19.469 Q 196.967 19.195 197.953 19.195 L 197.953 19.195 L 197.953 19.195 Q 198.852 19.195 199.623 19.415 L 199.623 19.415 L 199.623 19.415 Q 200.395 19.635 200.956 20.079 L 200.956 20.079 L 200.956 20.079 Q 201.518 20.523 201.84 21.188 L 201.84 21.188 L 201.84 21.188 Q 202.162 21.852 202.162 22.74 L 202.162 22.74 L 202.162 27.652 L 202.162 27.652 Q 202.162 28.18 202.26 28.771 L 202.26 28.771 L 202.26 28.771 Q 202.357 29.361 202.533 29.801 L 202.533 29.801 L 202.533 29.957 L 202.533 29.957 Z  M 197.455 28.58 L 197.455 28.58 L 197.455 28.58 Q 197.982 28.58 198.441 28.443 L 198.441 28.443 L 198.441 28.443 Q 198.9 28.307 199.276 28.082 L 199.276 28.082 L 199.276 28.082 Q 199.652 27.857 199.926 27.569 L 199.926 27.569 L 199.926 27.569 Q 200.199 27.281 200.355 26.969 L 200.355 26.969 L 200.355 24.83 L 198.676 24.83 L 198.676 24.83 Q 197.094 24.83 196.215 25.299 L 196.215 25.299 L 196.215 25.299 Q 195.336 25.768 195.336 26.773 L 195.336 26.773 L 195.336 26.773 Q 195.336 27.164 195.468 27.496 L 195.468 27.496 L 195.468 27.496 Q 195.6 27.828 195.863 28.067 L 195.863 28.067 L 195.863 28.067 Q 196.127 28.307 196.527 28.443 L 196.527 28.443 L 196.527 28.443 Q 196.928 28.58 197.455 28.58 Z  M 208.168 16.832 L 209.984 16.832 L 209.984 19.391 L 214.008 19.391 L 214.008 20.787 L 209.984 20.787 L 209.984 26.529 L 209.984 26.529 Q 209.984 27.145 210.141 27.545 L 210.141 27.545 L 210.141 27.545 Q 210.297 27.945 210.57 28.185 L 210.57 28.185 L 210.57 28.185 Q 210.844 28.424 211.2 28.521 L 211.2 28.521 L 211.2 28.521 Q 211.557 28.619 211.957 28.619 L 211.957 28.619 L 211.957 28.619 Q 212.25 28.619 212.563 28.585 L 212.563 28.585 L 212.563 28.585 Q 212.875 28.551 213.173 28.502 L 213.173 28.502 L 213.173 28.502 Q 213.471 28.453 213.729 28.399 L 213.729 28.399 L 213.729 28.399 Q 213.988 28.346 214.154 28.307 L 214.154 28.307 L 214.408 29.586 L 214.408 29.586 Q 214.184 29.723 213.861 29.825 L 213.861 29.825 L 213.861 29.825 Q 213.539 29.928 213.158 30.001 L 213.158 30.001 L 213.158 30.001 Q 212.777 30.074 212.353 30.113 L 212.353 30.113 L 212.353 30.113 Q 211.928 30.152 211.508 30.152 L 211.508 30.152 L 211.508 30.152 Q 210.805 30.152 210.194 29.952 L 210.194 29.952 L 210.194 29.952 Q 209.584 29.752 209.135 29.317 L 209.135 29.317 L 209.135 29.317 Q 208.686 28.883 208.427 28.194 L 208.427 28.194 L 208.427 28.194 Q 208.168 27.506 208.168 26.529 L 208.168 26.529 L 208.168 20.787 L 205.395 20.787 L 205.395 19.391 L 208.168 19.391 L 208.168 16.832 L 208.168 16.832 Z  M 217.992 20.963 L 217.992 19.391 L 223.393 19.391 L 223.393 28.395 L 226.84 28.395 L 226.84 29.957 L 217.992 29.957 L 217.992 28.395 L 221.586 28.395 L 221.586 20.963 L 217.992 20.963 L 217.992 20.963 Z  M 221.352 16.617 L 221.352 16.617 L 221.352 16.617 Q 221.352 16.168 221.62 15.86 L 221.62 15.86 L 221.62 15.86 Q 221.889 15.553 222.436 15.553 L 222.436 15.553 L 222.436 15.553 Q 222.973 15.553 223.246 15.86 L 223.246 15.86 L 223.246 15.86 Q 223.52 16.168 223.52 16.617 L 223.52 16.617 L 223.52 16.617 Q 223.52 17.057 223.246 17.35 L 223.246 17.35 L 223.246 17.35 Q 222.973 17.643 222.436 17.643 L 222.436 17.643 L 222.436 17.643 Q 221.889 17.643 221.62 17.35 L 221.62 17.35 L 221.62 17.35 Q 221.352 17.057 221.352 16.617 Z  M 234.213 28.688 L 234.213 28.688 L 234.213 28.688 Q 234.701 28.688 235.165 28.531 L 235.165 28.531 L 235.165 28.531 Q 235.629 28.375 235.99 28.097 L 235.99 28.097 L 235.99 28.097 Q 236.352 27.818 236.571 27.442 L 236.571 27.442 L 236.571 27.442 Q 236.791 27.066 236.801 26.627 L 236.801 26.627 L 238.51 26.627 L 238.51 26.627 Q 238.5 27.33 238.144 27.97 L 238.144 27.97 L 238.144 27.97 Q 237.787 28.609 237.191 29.093 L 237.191 29.093 L 237.191 29.093 Q 236.596 29.576 235.824 29.864 L 235.824 29.864 L 235.824 29.864 Q 235.053 30.152 234.213 30.152 L 234.213 30.152 L 234.213 30.152 Q 233.012 30.152 232.113 29.723 L 232.113 29.723 L 232.113 29.723 Q 231.215 29.293 230.614 28.565 L 230.614 28.565 L 230.614 28.565 Q 230.014 27.838 229.711 26.886 L 229.711 26.886 L 229.711 26.886 Q 229.408 25.934 229.408 24.879 L 229.408 24.879 L 229.408 24.469 L 229.408 24.469 Q 229.408 23.424 229.711 22.467 L 229.711 22.467 L 229.711 22.467 Q 230.014 21.51 230.614 20.782 L 230.614 20.782 L 230.614 20.782 Q 231.215 20.055 232.113 19.625 L 232.113 19.625 L 232.113 19.625 Q 233.012 19.195 234.213 19.195 L 234.213 19.195 L 234.213 19.195 Q 235.15 19.195 235.937 19.493 L 235.937 19.493 L 235.937 19.493 Q 236.723 19.791 237.294 20.304 L 237.294 20.304 L 237.294 20.304 Q 237.865 20.816 238.188 21.52 L 238.188 21.52 L 238.188 21.52 Q 238.51 22.223 238.51 23.023 L 238.51 23.023 L 236.801 23.023 L 236.801 23.023 Q 236.791 22.545 236.591 22.12 L 236.591 22.12 L 236.591 22.12 Q 236.391 21.695 236.049 21.373 L 236.049 21.373 L 236.049 21.373 Q 235.707 21.051 235.233 20.865 L 235.233 20.865 L 235.233 20.865 Q 234.76 20.68 234.213 20.68 L 234.213 20.68 L 234.213 20.68 Q 233.373 20.68 232.802 21.017 L 232.802 21.017 L 232.802 21.017 Q 232.23 21.354 231.879 21.896 L 231.879 21.896 L 231.879 21.896 Q 231.527 22.438 231.376 23.111 L 231.376 23.111 L 231.376 23.111 Q 231.225 23.785 231.225 24.469 L 231.225 24.469 L 231.225 24.879 L 231.225 24.879 Q 231.225 25.572 231.376 26.251 L 231.376 26.251 L 231.376 26.251 Q 231.527 26.93 231.874 27.472 L 231.874 27.472 L 231.874 27.472 Q 232.221 28.014 232.792 28.351 L 232.792 28.351 L 232.792 28.351 Q 233.363 28.688 234.213 28.688 Z " fill-rule="evenodd" fill="rgb(0,0,0)"/></g></svg>