<svg height="50" viewBox="0 0 200 50" width="200" xmlns="http://www.w3.org/2000/svg" xmlns:xlink="http://www.w3.org/1999/xlink"><clipPath id="a"><path d="m0 0h200v50h-200z"/></clipPath><g clip-path="url(#a)"><path d="m9.734 32.25v-9.297q-.593.016-1.781.078h-.078q-.297 0-.312-.312v-.031q0-.25.296-.391.313-.141 1.297-.672.235-.125.453-.219.047-.015.125-.015v-2.672q0-.781.321-1.086.32-.305 1.476-.852.422-.203.672-.203.36 0 .36.406v4.36l3.718-.078h.016q.234 0 .234.406 0 .219-.062.531-.156.735-.703.735l-3.203-.016v9.797q0 1.422.992 2.125.992.703 1.695.797v.5q-2.328 0-3.922-.438-1.594-.437-1.594-3.453zm36.157 1.125q-.797 1.031-1.836 1.906-1.039.875-2.242 1.36-1.391.593-2.735.593-1 0-1.969-.328-1.484-.515-1.484-2.109v-.063l-4.812 1.641q-.516.172-.86.172h-.64q-2.219-.109-3.407-1.813-.953-1.328-.953-3.265 0-1.735.703-3.485.703-1.75 1.719-2.937.578-.688 1.734-1.438.375-.234.86-.421 1.359-.469 2.726-.938 1.368-.469 2.743-.937.281-.094.531-.094h.078q.984.047 2.297.5.094.031.14.062.313.141.782.313.187.062.343.062.25 0 .469-.14.406-.282.578-.469.094-.109.235-.109.062 0 .14.031.282.125.282.281v.031l-2.61 11.266q-.14.625-.14 1.109 0 1.375 1.125 1.657.281.078.578.078.593 0 1.281-.282 1.062-.406 1.922-1.203 1.406-1.281 2.344-3.718.937-2.469.937-5.454 0-5.359-3.312-7.921-3.313-2.563-8.063-2.563-3.547 0-6.984 1.766-3.453 1.75-5.61 5.39-2.156 3.61-2.156 8.203 0 3.579 1.438 6.5 1.421 2.907 4.203 4.547 2.734 1.625 6.593 1.625 3.25 0 6.141-1.14 2.625-1.047 4.656-2.735.063-.062.141-.062.094 0 .203.109.109.11.109.266 0 .14-.078.297-.172.375-.39.578-2.297 2.125-5.227 3.054-2.93.93-6.258.93-6.25 0-10.25-3.937-4-3.953-4-10.047 0-6.938 5.016-11.719 5.016-4.75 12.312-4.75 5.844 0 9.657 3.156 3.812 3.188 3.812 8.407 0 4.515-2.812 8.187zm-10.188.516 2.235-9.75q-.5-.594-1.43-1.102-.93-.508-1.742-.539h-.063q-.312 0-.64.125-.61.203-1.219.414-.61.211-1.219.414-.406.141-.719.406-1.203 1.032-1.883 2.5-.679 1.469-.898 2.907-.125.734-.125 1.39 0 1.328.5 2.266.734 1.453 2.188 1.891.578.171 1.171.171.188 0 .391-.015.359-.031.875-.203.344-.11 1.172-.399.828-.289 1.406-.476zm19.281-19.61q1.704 0 1.704 1.719 0 1.734-1.704 1.734-1.703 0-1.703-1.734 0-1.719 1.703-1.719zm1.407 6.375v13.219q0 1.016.781 1.289.781.274.781.664 0 .328-.312.328h-5.297q-.328 0-.328-.328 0-.39.781-.664.781-.273.781-1.289v-10q0-.984-.781-1.266-.781-.281-.781-.687 0-.328.328-.328 1.031-.047 2.039-.321 1.008-.273 2.008-.617zm12.109.563h.047q3.047.125 5.156 2.351 2.11 2.227 2.156 5.321v.093q0 3.125-2.203 5.282-2.25 2.187-5.484 2.281h-.25q-3 0-5.172-2.219-2.25-2.281-2.25-5.39v-.047q.016-3.422 2.578-5.75.297-.282.883-.485.586-.203 1.742-.625.688-.25 1.516-.547.781-.265 1.281-.265zm-.281 1.047h-.188q-1.828 0-3.14 1.765-1.391 1.875-1.391 4.61 0 2.734 1.367 4.742 1.367 2.008 3.321 2.101h.218q1.813 0 3.125-1.765 1.375-1.86 1.375-4.594 0-2.734-1.375-4.742-1.375-2.008-3.312-2.117zm17.578-1.047h.047q3.047.125 5.156 2.351 2.109 2.227 2.156 5.321v.093q0 3.125-2.203 5.282-2.25 2.187-5.484 2.281h-.25q-3 0-5.172-2.219-2.25-2.281-2.25-5.39v-.047q.016-3.422 2.578-5.75.297-.282.883-.485.586-.203 1.742-.625.688-.25 1.516-.547.781-.265 1.281-.265zm-.281 1.047h-.188q-1.828 0-3.14 1.765-1.391 1.875-1.391 4.61 0 2.734 1.367 4.742 1.367 2.008 3.32 2.101h.219q1.813 0 3.125-1.765 1.375-1.86 1.375-4.594 0-2.734-1.375-4.742-1.375-2.008-3.312-2.117zm14.156 1.312 4.094 9.985 3.593-8.61q.141-.328.141-.64 0-.547-.437-1.063l-.516-.609 1.406-1.11q.094-.093.172-.093.109 0 .234.125l.875.89q.266.281.266.688 0 .234-.094.515-.25.75-.734 1.75l-4.797 10.719q-.078.156-.156.25-.078.078-.172.078h-1.313q-.109 0-.171-.094-.047-.046-.118-.242-.07-.195-.101-.289l-5.11-12.172q-.265-.593-.765-.937-.328-.203-.649-.344-.32-.141-.507-.281-.11-.063-.188-.203-.016-.063-.016-.11 0-.047.016-.093.047-.079.172-.079h5.125q.109 0 .25.079.125.109.172.203.015.047.015.078 0 .14-.156.281-.531.484-.578.641-.047.14-.047.297 0 .187.094.39zm11.75 3.969q.437-2.891 2.305-4.625 1.867-1.734 4.914-1.766h.062q3.078 0 4.703 1.75 1.625 1.782 1.625 4.641-.015.625-.047.883-.031.258-.64.258h-9.953q.047 2.531 1.281 4.195 1.234 1.664 3.109 2.039.547.125 1.11.125 1.484 0 3.078-.859.89-.485 1.203-.485.078 0 .125.031.047.047.047.141 0 .203-.203.578-.188.375-.305.5-.117.125-.211.219-1.703 1.469-4.625 1.469-4.094-.032-6.141-2.625-1.578-2-1.578-4.75 0-.828.141-1.719zm2.969 0h8.234q0-1.906-.859-3.5-.828-1.516-3.032-1.516h-.171q-2.204.063-3.157 1.594-.953 1.531-1.015 3.422zm17.906-.688v7.016q0 1.016.773 1.289.774.274.774.664 0 .328-.313.328h-5.297q-.328 0-.328-.328 0-.39.782-.664.781-.273.781-1.289v-10q0-.984-.781-1.266-.782-.281-.782-.687 0-.328.328-.328 1.032-.047 2.039-.321 1.008-.273 2.024-.617v2.063l2.172-.828q1.203-.453 1.875-.672.203-.063.484-.063.578 0 1.469.313l-.344 3.922h-.719q-.609-2.282-2.343-2.282-.172 0-.344.016-1.188.141-1.695 1.211-.508 1.07-.555 2.523zm10.703 5.704q1.719 0 1.719 1.359v1.281q0 1.344-1.719 1.344-1.719 0-1.719-1.344v-1.281q0-1.359 1.719-1.359zm9.141-11.907v2.172q.859-.328 1.515-.578.657-.25 1.25-.453 1.438-.5 2.985-.656.187-.016.39-.016 1.313 0 2.5.891 1.891 1.453 1.891 6.234v5.625q0 1.016.781 1.289.781.274.781.664 0 .328-.312.328h-3.797q-.266 0-.266-.203v-7.703q0-3.422-1.421-4.812-.907-.891-2.219-.891-.75 0-1.641.297-.344.125-.867.32-.523.195-.898.336-.375.141-.672.25v10.125q0 1.016.781 1.289.781.274.781.664 0 .328-.312.328h-5.297q-.328 0-.328-.328 0-.39.781-.664.781-.273.781-1.289v-10q0-.984-.781-1.266-.781-.281-.781-.687 0-.328.328-.328 1.031-.047 2.039-.321 1.008-.273 2.008-.617zm14.062 6.891q.438-2.891 2.305-4.625 1.867-1.734 4.914-1.766h.062q3.079 0 4.704 1.75 1.625 1.782 1.625 4.641-.016.625-.047.883-.032.258-.641.258h-9.953q.047 2.531 1.281 4.195 1.235 1.664 3.11 2.039.546.125 1.109.125 1.484 0 3.078-.859.891-.485 1.203-.485.078 0 .125.031.047.047.047.141 0 .203-.203.578-.188.375-.305.5-.117.125-.211.219-1.703 1.469-4.625 1.469-4.093-.032-6.14-2.625-1.578-2-1.578-4.75 0-.828.14-1.719zm2.969 0h8.234q0-1.906-.859-3.5-.828-1.516-3.031-1.516h-.172q-2.203.063-3.156 1.594-.954 1.531-1.016 3.422zm14.844 4.703v-9.297q-.594.016-1.782.078h-.078q-.297 0-.312-.312v-.031q0-.25.297-.391.312-.141 1.297-.672.234-.125.453-.219.047-.015.125-.015v-2.672q0-.781.32-1.086.32-.305 1.477-.852.421-.203.671-.203.36 0 .36.406v4.36l3.719-.078h.015q.235 0 .235.406 0 .219-.063.531-.156.735-.703.735l-3.203-.016v9.797q0 1.422.992 2.125.992.703 1.695.797v.5q-2.328 0-3.922-.438-1.593-.437-1.593-3.453z" fill-rule="evenodd"/></g></svg>