<svg enable-background="new 0 0 261.9 64.3" viewBox="0 0 261.9 64.3" xmlns="http://www.w3.org/2000/svg"><circle cx="32.3" cy="32" fill="#fff" r="28.8"/><path d="m31.9 0c9 0 16.6 3.1 22.9 9.4 3 3 5.3 6.4 6.9 10.3s2.3 8 2.3 12.3c0 4.4-.8 8.5-2.3 12.3s-3.8 7.2-6.8 10.1c-3.1 3.1-6.7 5.4-10.6 7.1-4 1.6-8.1 2.5-12.3 2.5s-8.3-.8-12.1-2.4c-3.9-1.6-7.3-4-10.4-7s-5.5-6.6-7.1-10.4-2.4-7.9-2.4-12.2c0-4.2.8-8.3 2.4-12.2s4-7.4 7.1-10.5c6.1-6.2 13.6-9.3 22.4-9.3zm.2 5.8c-7.3 0-13.5 2.6-18.5 7.7-2.5 2.5-4.4 5.3-5.8 8.5s-2 6.5-2 10c0 3.4.7 6.7 2 9.9 1.4 3.2 3.3 6 5.8 8.5s5.4 4.4 8.5 5.7c3.2 1.3 6.5 2 9.9 2s6.8-.7 10-2 6.1-3.3 8.7-5.8c5-4.9 7.5-11 7.5-18.3 0-3.5-.6-6.9-1.9-10.1s-3.2-6-5.7-8.5c-5.1-5.1-11.3-7.6-18.5-7.6zm-.4 20.9-4.3 2.2c-.5-1-1-1.6-1.7-2s-1.3-.6-1.9-.6c-2.9 0-4.3 1.9-4.3 5.7 0 1.7.4 3.1 1.1 4.1s1.8 1.5 3.2 1.5c1.9 0 3.2-.9 3.9-2.7l3.9 2c-.8 1.6-2 2.8-3.5 3.7s-3.1 1.3-4.9 1.3c-2.9 0-5.2-.9-6.9-2.6-1.8-1.8-2.6-4.2-2.6-7.3 0-3 .9-5.5 2.7-7.3s4-2.7 6.7-2.7c4 .1 6.8 1.6 8.6 4.7zm18.4 0-4.2 2.2c-.5-1-1-1.6-1.7-2s-1.3-.6-1.9-.6c-2.9 0-4.3 1.9-4.3 5.7 0 1.7.4 3.1 1.1 4.1s1.8 1.5 3.2 1.5c1.9 0 3.2-.9 3.9-2.7l4 2c-.9 1.6-2.1 2.8-3.5 3.7-1.5.9-3.1 1.3-4.9 1.3-2.9 0-5.2-.9-6.9-2.6-1.7-1.8-2.6-4.2-2.6-7.3 0-3 .9-5.5 2.7-7.3s4-2.7 6.7-2.7c3.9.1 6.7 1.6 8.4 4.7z" fill="#010101"/><circle cx="97.9" cy="32.5" fill="#fff" r="28.3"/><path d="m97.8.2c9 0 16.6 3.1 22.7 9.3 6.2 6.2 9.3 13.8 9.3 22.7 0 9-3 16.5-9.1 22.5-6.5 6.4-14.1 9.5-22.9 9.5-8.6 0-16.2-3.1-22.5-9.4s-9.4-13.8-9.4-22.6 3.1-16.3 9.4-22.7c6.1-6.3 13.6-9.3 22.5-9.3zm.1 5.7c-7.3 0-13.4 2.6-18.5 7.7-5.2 5.3-7.8 11.5-7.8 18.6s2.6 13.2 7.8 18.4 11.4 7.8 18.5 7.8 13.3-2.6 18.6-7.8c5-4.8 7.5-11 7.5-18.3s-2.6-13.5-7.7-18.6c-5-5.2-11.2-7.8-18.4-7.8zm8.5 18.3v13.1h-3.7v15.5h-9.9v-15.5h-3.7v-13.1c0-.6.2-1.1.6-1.5s.9-.6 1.5-.6h13.1c.5 0 1 .2 1.4.6.5.5.7.9.7 1.5zm-13.1-8.2c0-3 1.5-4.5 4.5-4.5s4.5 1.5 4.5 4.5-1.5 4.5-4.5 4.5-4.5-1.5-4.5-4.5z" fill="#010101"/><circle cx="163.9" cy="32.4" fill="#fff" r="29.5"/><path d="m163.8.2c9 0 16.6 3.1 22.7 9.3 6.2 6.2 9.3 13.8 9.3 22.7 0 9-3 16.5-9.1 22.5-6.5 6.4-14.1 9.5-22.9 9.5-8.7 0-16.2-3.2-22.5-9.5s-9.4-13.8-9.4-22.5c0-8.8 3.1-16.3 9.4-22.7 6.2-6.3 13.7-9.3 22.5-9.3zm-24.7 23.3c-1 2.6-1.4 5.5-1.4 8.6 0 7.1 2.6 13.2 7.8 18.4 5.2 5.1 11.4 7.7 18.5 7.7 7.2 0 13.4-2.6 18.6-7.8 1.9-1.8 3.3-3.7 4.4-5.6l-12.1-5.4c-.4 2-1.4 3.7-3.1 4.9-1.6 1.3-3.5 2-5.7 2.2v4.9h-3.7v-4.9c-3.5 0-6.8-1.3-9.7-3.8l4.4-4.5c2.1 1.9 4.5 2.9 7.1 2.9 1.1 0 2-.2 2.8-.7s1.2-1.3 1.2-2.5c0-.8-.3-1.4-.9-1.9l-3.1-1.3-3.8-1.7-5.1-2.2zm24.9-17.6c-7.3 0-13.4 2.6-18.5 7.7-1.3 1.3-2.4 2.7-3.5 4.3l12.2 5.5c.5-1.7 1.5-3 3-4s3.2-1.6 5.2-1.7v-4.9h3.7v4.9c2.9.2 5.6 1.1 8 3l-4.2 4.3c-1.8-1.3-3.6-1.9-5.5-1.9-1 0-1.9.2-2.7.6s-1.2 1-1.2 1.9c0 .3.1.5.3.8l4.1 1.8 2.8 1.3 5.1 2.3 16.4 7.3c.5-2.2.8-4.5.8-6.9 0-7.4-2.6-13.5-7.7-18.6-4.9-5.2-11.1-7.7-18.3-7.7z" fill="#010101"/><circle cx="229.3" cy="32.3" fill="#fff" r="29.1"/><path d="m229.8.2c9 0 16.5 3.1 22.7 9.3s9.3 13.7 9.3 22.7-3 16.5-9.1 22.5c-6.4 6.3-14.1 9.5-22.9 9.5-8.6 0-16.2-3.1-22.5-9.4s-9.4-13.8-9.4-22.6c0-8.7 3.1-16.3 9.4-22.7 6.2-6.2 13.7-9.3 22.5-9.3zm.1 5.7c-7.3 0-13.4 2.6-18.5 7.7-5.2 5.3-7.8 11.5-7.8 18.5 0 7.1 2.6 13.3 7.8 18.4 5.2 5.2 11.4 7.8 18.5 7.8s13.3-2.6 18.6-7.8c5-4.9 7.5-11 7.5-18.3s-2.6-13.5-7.7-18.5c-4.9-5.2-11.1-7.8-18.4-7.8zm-14.3 21.7c.6-3.9 2.2-7 4.7-9.1 2.6-2.2 5.7-3.2 9.3-3.2 5 0 9 1.6 12 4.9 3 3.2 4.5 7.4 4.5 12.5 0 4.9-1.5 9-4.6 12.3s-7.1 4.9-12 4.9c-3.6 0-6.7-1.1-9.4-3.3-2.6-2.2-4.2-5.3-4.7-9.3h8.1c.2 3.9 2.5 5.8 7 5.8 2.2 0 4.1-1 5.4-2.9 1.4-1.9 2.1-4.5 2.1-7.8 0-3.4-.6-6-1.9-7.7-1.3-1.8-3.1-2.7-5.4-2.7-4.3 0-6.7 1.9-7.2 5.7h2.3l-6.3 6.3-6.3-6.3z" fill="#010101"/></svg>