<svg height="260" viewBox="0 0 260 260" width="260" xmlns="http://www.w3.org/2000/svg" xmlns:xlink="http://www.w3.org/1999/xlink"><clipPath id="a"><path d="m0 0h260v260h-260z"/></clipPath><g clip-path="url(#a)"><path d="m90.266 0h-90.266v260h15.205zm19.68 0h150.054v260h-225.115zm60.054 221.56q-13.92 0-23.88-5.76-9.96-5.76-15.96-16.32-7.68-13.2-7.68-32.64v-70.8q0-19.44 7.68-32.64 6-10.56 15.96-16.32 9.96-5.76 23.88-5.76 13.92 0 23.88 5.76 9.96 5.76 15.96 16.32 7.68 13.2 7.68 32.64v70.8q0 19.44-7.68 32.64-4.56 7.92-11.28 13.2-2.4 1.68-4.8 3.12-9.84 5.76-23.76 5.76m0-17.28q7.44 0 12.96-3.12 6-3.6 9.84-10.32 5.52-9.36 5.52-24v-56.64l-54.96 70.8q1.2 5.52 3.84 9.84 3.84 6.72 9.84 10.32 5.52 3.12 12.96 3.12m-28.32-108.24v56.64l54.96-70.8q-1.2-5.52-3.84-9.84-3.84-6.72-9.84-10.32-5.52-3.12-12.96-3.12-7.44 0-12.96 3.12-6 3.6-9.84 10.32-5.52 9.36-5.52 24" fill-rule="evenodd"/></g></svg>