<svg height="260pt" preserveAspectRatio="xMidYMid meet" viewBox="0 0 260 260" width="260pt" xmlns="http://www.w3.org/2000/svg"><g transform="matrix(.1 0 0 -.1 0 260)"><path d="m0 1300v-1301l77 3 77 3 372 1290c205 710 373 1293 374 1298 0 4-202 7-450 7h-450z"/><path d="m1076 2518c-14-46-181-623-371-1283s-348-1208-351-1217c-5-17 53-18 1120-18h1126v1300 1300h-750-749zm778-353c137-42 237-149 290-310 26-81 35-229 35-570 0-468-14-573-98-702-86-133-204-193-381-193-276 0-440 166-470 475-12 131-12 723 0 845 16 153 58 257 138 342 67 72 138 109 252 132 43 8 183-3 234-19z"/><path d="m1602 2000c-42-18-91-61-121-109-56-87-62-132-59-488l3-321 265 342c236 304 265 345 265 377-1 49-56 131-114 172-42 29-54 32-131 34-47 2-95-2-108-7z"/><path d="m1718 1156c-142-182-264-340-272-352-14-19-12-27 13-80 53-112 129-164 241-164 107 0 184 49 234 149 42 83 47 135 44 467l-3 311z"/></g></svg>